<svg xmlns="http://www.w3.org/2000/svg" width="450.74399" height="512.47198" viewBox="0 0 119.25934 135.59155"><defs><radialGradient id="a" cx="0" cy="0" r="1" fx="0" fy="0" gradientTransform="matrix(-129.858 -389.573 -389.573 129.858 960.029 805.347)" gradientUnits="userSpaceOnUse"><stop offset="0%" style="stop-color:#52aee5;stop-opacity:1"/><stop offset="100%" style="stop-color:#356ebf;stop-opacity:1"/></radialGradient><radialGradient id="b" cx="0" cy="0" r="1" fx="0" fy="0" gradientTransform="matrix(169.131 442.475 442.475 -169.131 975.703 709.336)" gradientUnits="userSpaceOnUse"><stop offset="0%" style="stop-color:#949494;stop-opacity:1"/><stop offset="100%" style="stop-color:#2f2d2e;stop-opacity:1"/></radialGradient></defs><g><path d="M819.625 872.184c-16.797 20.586-32.59 41.816-46.934 63.875-2.878 4.406-5.695 8.839-8.48 13.289-16.441 26.097-30.406 55.562-42.277 84.692-.043-.05-.079-.1-.118-.15-5.531 14.82-10.355 30.05-14.062 45.86-24.977 106.6 29.488 181.05 138.648 185.21 46.473 1.77 93.067.31 130.129.31-85.996 40.41-202.785 40.8-265.816 20.46-51.297-16.55-91.738-55.65-109.215-103.31-1.945-5.3-3.602-10.7-4.969-16.19-9.672-44.36-3.902-90.39 9.645-133.2 1.683-5.34 3.504-10.65 5.39-15.91 15.207-50.987 44.11-98.979 70.274-143.276 1.859-3.524-1.879 3.5 0 0 7.515-14 21.344-34.66 29.082-46.535l23.242-37.883-91.719 93.152c-5.144-24.101-9.824-58.801-9.824-84.441 0-196.91 159.613-356.52 356.5-356.52 96.219 0 183.469 38.172 247.609 100.137-161.61 80.098-301.789 189.109-417.105 330.43" style="opacity:1;fill:url(#a);fill-rule:nonzero;stroke:none;stroke-width:1;stroke-linecap:butt;stroke-linejoin:miter;stroke-miterlimit:4;stroke-dasharray:none;stroke-dashoffset:0" transform="matrix(.15815232 0 0 -.15815232 -93.58179544 205.4343038)"/><path d="M1295.2 909.934c-5.82 21.273-12.75 41.937-20.68 61.941 20.08-27.23 35.67-58.684 45.18-93.477 15.71-57.453 12.64-115.46-5.39-167.125 5.04 64.872-.87 131.946-19.11 198.661zM989.121 1154.64c-89.172 0-170.621-32.81-233.129-86.91 10.528-33.49 26.473-64.12 44.938-93.542 113.918-181.614 272.37-311.469 458.56-408.325 53.64 62.422 86.14 143.524 86.14 232.274 0 196.89-159.6 356.503-356.509 356.503" style="opacity:1;fill:url(#b);fill-rule:nonzero;stroke:none;stroke-width:1;stroke-linecap:butt;stroke-linejoin:miter;stroke-miterlimit:4;stroke-dasharray:none;stroke-dashoffset:0" transform="matrix(.15815232 0 0 -.15815232 -93.55527614 205.43615392)"/></g></svg>
