<?xml version="1.0" encoding="UTF-8" standalone="no" ?>
<!DOCTYPE svg PUBLIC "-//W3C//DTD SVG 1.1//EN" "http://www.w3.org/Graphics/SVG/1.1/DTD/svg11.dtd">
<svg xmlns="http://www.w3.org/2000/svg" xmlns:xlink="http://www.w3.org/1999/xlink" version="1.1" width="1280" height="1024" viewBox="0 0 1280 1024" xml:space="preserve">
<desc>Created with Fabric.js 4.4.0</desc>
<defs>
</defs>
<g transform="matrix(1 0 0 1 640 512)" id="background-logo"  >
<rect style="stroke: none; stroke-width: 0; stroke-dasharray: none; stroke-linecap: butt; stroke-dashoffset: 0; stroke-linejoin: miter; stroke-miterlimit: 4; fill: rgb(255,255,255); fill-opacity: 0; fill-rule: nonzero; opacity: 1;"  paint-order="stroke"  x="-640" y="-512" rx="0" ry="0" width="1280" height="1024" />
</g>
<g transform="matrix(1.9211538461538462 0 0 1.9211538461538462 642.8851973178139 761.1560014303726)" id="text-logo-path-group"  >
<g style=""  paint-order="stroke"   >
		<g transform="matrix(1 0 0 1 0 0)" id="text-logo-path-0"  >
<path style="stroke: none; stroke-width: 1; stroke-dasharray: none; stroke-linecap: butt; stroke-dashoffset: 0; stroke-linejoin: miter; stroke-miterlimit: 4; fill: rgb(64,133,204); fill-rule: nonzero; opacity: 1;"  paint-order="stroke"  transform=" translate(-203.57999999999998, 22.345)" d="M 21.38 -45.14 L 4.16 -45.14 L 4.16 0 L 15.11 0 L 15.11 -14.52 L 21.38 -14.52 C 29.9 -14.52 36.76 -21.38 36.76 -29.83 C 36.76 -38.28 29.9 -45.14 21.38 -45.14 Z M 15.11 -24.95 L 15.11 -34.72 L 21.38 -34.72 C 24.22 -34.72 26.27 -32.67 26.27 -29.83 C 26.27 -27.06 24.16 -24.95 21.38 -24.95 Z M 56.63 -14.52 L 64.75 0 L 77.29 0 L 67.85 -17.03 C 72.2 -19.87 74.71 -24.68 74.71 -29.83 C 74.71 -38.35 67.91 -45.14 59.47 -45.14 L 40.33 -45.14 L 40.33 0 L 51.35 0 L 51.35 -14.52 Z M 51.35 -24.95 L 51.35 -34.72 L 59.47 -34.72 C 62.24 -34.72 64.35 -32.6 64.35 -29.83 C 64.35 -27.19 62.11 -24.95 59.47 -24.95 Z M 101.18 0.92 C 114.11 0.92 124.41 -9.57 124.41 -22.37 C 124.41 -35.38 114.05 -45.61 101.18 -45.61 C 88.24 -45.61 77.88 -35.18 77.88 -22.37 C 77.88 -9.64 88.31 0.92 101.18 0.92 Z M 88.84 -22.37 C 88.84 -29.11 94.51 -34.65 101.18 -34.65 C 107.98 -34.65 113.39 -29.11 113.39 -22.37 C 113.39 -15.64 107.98 -10.1 101.18 -10.1 C 94.45 -10.1 88.84 -15.71 88.84 -22.37 Z M 158.73 -34.72 L 158.73 -45.14 L 125 -45.14 L 125 -34.72 L 136.42 -34.72 L 136.42 0 L 147.38 0 L 147.38 -34.72 Z M 172.66 -10.36 L 172.66 -17.89 L 188.36 -17.89 L 188.36 -28.25 L 172.66 -28.25 L 172.66 -34.72 L 189.95 -34.72 L 189.95 -45.14 L 161.63 -45.14 L 161.63 0 L 190.28 0 L 190.28 -10.36 Z M 193.12 -22.37 C 193.12 -9.5 203.68 0.92 216.41 0.92 C 224.93 0.92 232.98 -3.96 236.94 -11.48 L 227.24 -16.76 C 225.26 -12.74 220.9 -10.1 216.41 -10.1 C 209.68 -10.1 204.07 -15.71 204.07 -22.37 C 204.07 -29.11 209.75 -34.65 216.41 -34.65 C 220.9 -34.65 224.99 -32.27 227.17 -28.31 L 236.81 -33.46 C 232.78 -40.99 224.93 -45.61 216.41 -45.61 C 203.61 -45.61 193.12 -35.31 193.12 -22.37 Z M 269.87 -45.14 L 269.87 -28.31 L 251.79 -28.31 L 251.79 -45.14 L 240.77 -45.14 L 240.77 0 L 251.79 0 L 251.79 -17.89 L 269.87 -17.89 L 269.87 0 L 280.83 0 L 280.83 -45.14 Z M 288.42 -4.62 C 288.42 -1.12 290.33 0.86 293.83 0.86 C 297.33 0.86 299.18 -1.19 299.18 -4.62 C 299.18 -8.12 297.33 -10.03 293.83 -10.03 C 290.33 -10.03 288.42 -8.12 288.42 -4.62 Z M 341.42 -45.08 L 341.35 -45.14 L 329.54 -25.41 L 317.72 -45.14 L 306.7 -45.14 L 306.7 0 L 317.72 0 L 317.72 -25.01 L 328.22 -7.39 L 330.92 -7.39 L 341.42 -25.01 L 341.42 0 L 352.37 0 L 352.37 -45.14 L 341.42 -45.14 Z M 379.83 -45.14 L 360.56 -45.14 L 360.56 0 L 379.83 0 C 392.7 0 403 -9.5 403 -22.37 C 403 -35.18 392.7 -45.14 379.83 -45.14 Z M 371.58 -10.36 L 371.58 -34.72 L 379.83 -34.72 C 386.63 -34.72 392.04 -29.24 392.04 -22.51 C 392.04 -15.71 386.5 -10.36 379.83 -10.36 Z" stroke-linecap="round" />
</g>
</g>
</g>
<g transform="matrix(1.9211538461538462 0 0 1.9211538461538462 642.4433919692558 868.8056486900778)" id="tagline-9dcdc4f2-50f3-45d3-b464-117b97fbb064-logo-path-group"  >
<g style=""  paint-order="stroke"   >
		<g transform="matrix(1 0 0 1 5.684342e-14 0)" id="tagline-9dcdc4f2-50f3-45d3-b464-117b97fbb064-logo-path-0"  >
<path style="stroke: rgb(255,255,255); stroke-width: 0; stroke-dasharray: none; stroke-linecap: butt; stroke-dashoffset: 0; stroke-linejoin: miter; stroke-miterlimit: 4; fill: rgb(115,115,115); fill-rule: nonzero; opacity: 1;"  paint-order="stroke"  transform=" translate(-310.02, 11.48)" d="M 2.84 -7.84 L 2.84 -7.84 L 2.84 -22.97 Q 2.84 -23.74 3.02 -24.63 Q 3.2 -25.52 3.59 -26.39 Q 3.97 -27.26 4.6 -28.06 Q 5.22 -28.85 6.09 -29.47 Q 6.96 -30.08 8.1 -30.44 Q 9.24 -30.81 10.68 -30.81 L 10.68 -30.81 L 33.39 -30.81 L 33.39 -25.22 L 10.68 -25.22 Q 9.58 -25.22 9 -24.64 Q 8.42 -24.06 8.42 -22.92 L 8.42 -22.92 L 8.42 -7.84 Q 8.42 -6.77 9.01 -6.18 Q 9.6 -5.59 10.68 -5.59 L 10.68 -5.59 L 28.06 -5.59 L 28.06 -12.59 L 13.19 -12.59 L 13.19 -18.22 L 30.83 -18.22 Q 31.43 -18.22 31.95 -17.99 Q 32.46 -17.77 32.84 -17.38 Q 33.21 -16.99 33.43 -16.49 Q 33.64 -15.98 33.64 -15.4 L 33.64 -15.4 L 33.64 -2.81 Q 33.64 -2.21 33.43 -1.7 Q 33.21 -1.18 32.84 -0.81 Q 32.46 -0.43 31.95 -0.21 Q 31.43 0 30.83 0 L 30.83 0 L 10.68 0 Q 9.9 0 9.01 -0.18 Q 8.12 -0.37 7.25 -0.75 Q 6.38 -1.14 5.59 -1.75 Q 4.79 -2.36 4.18 -3.23 Q 3.57 -4.1 3.2 -5.25 Q 2.84 -6.4 2.84 -7.84 Z M 44.97 0 L 39.38 0 L 39.38 -22.97 Q 39.38 -25.12 40.17 -26.62 Q 40.95 -28.12 42.12 -29.05 Q 43.29 -29.97 44.67 -30.39 Q 46.04 -30.81 47.2 -30.81 L 47.2 -30.81 L 59.83 -30.81 Q 61.72 -30.81 63.23 -30.33 Q 64.73 -29.84 65.88 -29.04 Q 67.03 -28.23 67.84 -27.18 Q 68.64 -26.13 69.17 -24.98 Q 69.7 -23.83 69.93 -22.66 Q 70.17 -21.48 70.17 -20.45 L 70.17 -20.45 L 70.17 -17.92 Q 70.17 -16.01 69.7 -14.5 Q 69.22 -13 68.42 -11.85 Q 67.61 -10.7 66.56 -9.88 Q 65.51 -9.07 64.36 -8.55 Q 63.21 -8.04 62.04 -7.8 Q 60.87 -7.56 59.83 -7.56 L 59.83 -7.56 L 47.2 -7.56 L 47.2 -13.15 L 59.83 -13.15 Q 60.91 -13.23 61.78 -13.59 Q 62.65 -13.94 63.27 -14.54 Q 63.89 -15.15 64.24 -16 Q 64.58 -16.84 64.58 -17.92 L 64.58 -17.92 L 64.58 -20.45 Q 64.47 -21.51 64.13 -22.39 Q 63.79 -23.27 63.2 -23.89 Q 62.61 -24.51 61.77 -24.87 Q 60.93 -25.22 59.83 -25.22 L 59.83 -25.22 L 47.24 -25.22 Q 46.13 -25.22 45.55 -24.64 Q 44.97 -24.06 44.97 -22.97 L 44.97 -22.97 L 44.97 0 Z M 73.76 -21.7 L 73.76 -21.7 Q 73.76 -24.21 74.65 -25.94 Q 75.54 -27.67 76.88 -28.76 Q 78.22 -29.84 79.79 -30.33 Q 81.36 -30.81 82.71 -30.81 L 82.71 -30.81 L 101.73 -30.81 L 101.73 -25.22 L 82.71 -25.22 Q 81.13 -25.22 80.23 -24.26 Q 79.34 -23.29 79.34 -21.7 L 79.34 -21.7 Q 79.34 -20.09 80.23 -19.15 Q 81.13 -18.22 82.71 -18.22 L 82.71 -18.22 L 95.56 -18.22 L 95.61 -18.22 Q 96.51 -18.2 97.52 -17.97 Q 98.53 -17.75 99.53 -17.27 Q 100.53 -16.8 101.43 -16.08 Q 102.33 -15.36 103.03 -14.35 Q 103.73 -13.34 104.13 -12.03 Q 104.54 -10.72 104.54 -9.07 L 104.54 -9.07 Q 104.54 -7.41 104.12 -6.09 Q 103.71 -4.77 103.02 -3.76 Q 102.33 -2.75 101.41 -2.04 Q 100.48 -1.33 99.49 -0.88 Q 98.51 -0.43 97.49 -0.21 Q 96.46 0 95.56 0 L 95.56 0 L 74.01 0 L 74.01 -5.59 L 95.56 -5.59 Q 97.17 -5.59 98.07 -6.53 Q 98.96 -7.48 98.96 -9.07 L 98.96 -9.07 Q 98.96 -9.84 98.72 -10.48 Q 98.48 -11.13 98.04 -11.6 Q 97.6 -12.07 96.97 -12.33 Q 96.34 -12.59 95.56 -12.59 L 95.56 -12.59 L 82.71 -12.59 Q 81.36 -12.59 79.79 -13.07 Q 78.22 -13.56 76.88 -14.63 Q 75.54 -15.71 74.65 -17.45 Q 73.76 -19.19 73.76 -21.7 Z M 128.24 0 L 122.65 0 L 122.65 -20.45 Q 122.65 -21.03 122.87 -21.54 Q 123.08 -22.04 123.47 -22.42 Q 123.86 -22.79 124.37 -23.01 Q 124.89 -23.22 125.47 -23.22 L 125.47 -23.22 L 135.54 -23.22 Q 136.71 -23.22 138.04 -22.82 Q 139.37 -22.41 140.57 -21.51 L 140.57 -21.51 L 140.57 -23.22 L 148.13 -23.22 Q 148.93 -23.22 149.81 -23.04 Q 150.69 -22.86 151.56 -22.47 Q 152.43 -22.09 153.23 -21.47 Q 154.02 -20.86 154.62 -19.99 Q 155.22 -19.12 155.59 -17.98 Q 155.96 -16.84 155.96 -15.4 L 155.96 -15.4 L 155.96 0 L 150.37 0 L 150.37 -15.4 Q 150.37 -16.5 149.82 -17.07 Q 149.27 -17.64 148.13 -17.64 L 148.13 -17.64 L 143.11 -17.64 Q 143.39 -16.61 143.39 -15.4 L 143.39 -15.4 L 143.39 0 L 137.8 0 L 137.8 -15.4 Q 137.8 -16.5 137.22 -17.07 Q 136.64 -17.64 135.5 -17.64 L 135.5 -17.64 L 128.24 -17.64 L 128.24 0 Z M 160.62 -7.84 L 160.62 -7.84 L 160.62 -15.4 Q 160.62 -17.55 161.4 -19.05 Q 162.19 -20.54 163.36 -21.47 Q 164.53 -22.41 165.9 -22.82 Q 167.28 -23.22 168.44 -23.22 L 168.44 -23.22 L 178.51 -23.22 Q 180.66 -23.22 182.17 -22.45 Q 183.67 -21.68 184.59 -20.51 Q 185.52 -19.34 185.94 -17.96 Q 186.36 -16.59 186.36 -15.4 L 186.36 -15.4 L 186.36 -7.84 Q 186.36 -6.4 185.99 -5.25 Q 185.63 -4.1 185.02 -3.23 Q 184.42 -2.36 183.63 -1.75 Q 182.83 -1.14 181.96 -0.75 Q 181.09 -0.37 180.2 -0.18 Q 179.31 0 178.51 0 L 178.51 0 L 168.44 0 Q 167.28 0 165.9 -0.41 Q 164.53 -0.82 163.36 -1.75 Q 162.19 -2.69 161.4 -4.18 Q 160.62 -5.67 160.62 -7.84 Z M 166.2 -15.4 L 166.2 -7.84 Q 166.2 -6.75 166.78 -6.17 Q 167.36 -5.59 168.48 -5.59 L 168.48 -5.59 L 178.51 -5.59 Q 179.65 -5.59 180.21 -6.17 Q 180.77 -6.75 180.77 -7.84 L 180.77 -7.84 L 180.77 -15.36 Q 180.77 -16.52 180.19 -17.08 Q 179.61 -17.64 178.51 -17.64 L 178.51 -17.64 L 168.48 -17.64 Q 167.36 -17.64 166.78 -17.07 Q 166.2 -16.5 166.2 -15.4 L 166.2 -15.4 Z M 196.69 0 L 191.1 0 L 191.1 -20.45 Q 191.1 -21.03 191.32 -21.54 Q 191.53 -22.04 191.92 -22.42 Q 192.31 -22.79 192.82 -23.01 Q 193.34 -23.22 193.92 -23.22 L 193.92 -23.22 L 206.51 -23.22 Q 207.56 -23.22 208.73 -22.99 Q 209.9 -22.75 211.05 -22.23 Q 212.2 -21.7 213.24 -20.89 Q 214.29 -20.09 215.09 -18.94 Q 215.9 -17.79 216.37 -16.29 Q 216.84 -14.78 216.84 -12.89 L 216.84 -12.89 L 216.84 0 L 211.26 0 L 211.26 -12.89 Q 211.26 -13.99 210.88 -14.86 Q 210.5 -15.73 209.86 -16.35 Q 209.21 -16.97 208.34 -17.31 Q 207.47 -17.64 206.46 -17.64 L 206.46 -17.64 L 196.69 -17.64 L 196.69 0 Z M 227.41 0 L 221.83 0 L 221.83 -23.22 L 227.41 -23.22 L 227.41 0 Z M 227.41 -27.99 L 221.83 -27.99 L 221.83 -33.04 L 227.41 -33.04 L 227.41 -27.99 Z M 238.48 -17.64 L 231.21 -17.64 L 231.21 -23.22 L 238.48 -23.22 L 238.48 -30.81 L 244.13 -30.81 L 244.13 -23.22 L 253.88 -23.22 L 253.88 -17.64 L 244.13 -17.64 L 244.13 0 L 238.48 0 L 238.48 -17.64 Z M 257 -7.84 L 257 -7.84 L 257 -15.4 Q 257 -17.55 257.78 -19.05 Q 258.56 -20.54 259.74 -21.47 Q 260.91 -22.41 262.28 -22.82 Q 263.66 -23.22 264.82 -23.22 L 264.82 -23.22 L 274.89 -23.22 Q 277.04 -23.22 278.54 -22.45 Q 280.05 -21.68 280.97 -20.51 Q 281.9 -19.34 282.32 -17.96 Q 282.73 -16.59 282.73 -15.4 L 282.73 -15.4 L 282.73 -7.84 Q 282.73 -6.4 282.37 -5.25 Q 282 -4.1 281.4 -3.23 Q 280.8 -2.36 280.01 -1.75 Q 279.21 -1.14 278.34 -0.75 Q 277.47 -0.37 276.58 -0.18 Q 275.69 0 274.89 0 L 274.89 0 L 264.82 0 Q 263.66 0 262.28 -0.41 Q 260.91 -0.82 259.74 -1.75 Q 258.56 -2.69 257.78 -4.18 Q 257 -5.67 257 -7.84 Z M 262.58 -15.4 L 262.58 -7.84 Q 262.58 -6.75 263.16 -6.17 Q 263.74 -5.59 264.86 -5.59 L 264.86 -5.59 L 274.89 -5.59 Q 276.03 -5.59 276.59 -6.17 Q 277.15 -6.75 277.15 -7.84 L 277.15 -7.84 L 277.15 -15.36 Q 277.15 -16.52 276.57 -17.08 Q 275.99 -17.64 274.89 -17.64 L 274.89 -17.64 L 264.86 -17.64 Q 263.74 -17.64 263.16 -17.07 Q 262.58 -16.5 262.58 -15.4 L 262.58 -15.4 Z M 292.94 0 L 287.35 0 L 287.35 -15.4 Q 287.35 -16.84 287.72 -17.98 Q 288.08 -19.12 288.7 -19.99 Q 289.31 -20.86 290.1 -21.47 Q 290.9 -22.09 291.77 -22.47 Q 292.64 -22.86 293.53 -23.04 Q 294.42 -23.22 295.2 -23.22 L 295.2 -23.22 L 307.81 -23.22 L 307.81 -17.64 L 295.24 -17.64 Q 294.1 -17.64 293.52 -17.07 Q 292.94 -16.5 292.94 -15.4 L 292.94 -15.4 L 292.94 0 Z M 317.15 0 L 311.57 0 L 311.57 -23.22 L 317.15 -23.22 L 317.15 0 Z M 317.15 -27.99 L 311.57 -27.99 L 311.57 -33.04 L 317.15 -33.04 L 317.15 -27.99 Z M 328.09 0 L 322.5 0 L 322.5 -20.45 Q 322.5 -21.03 322.72 -21.54 Q 322.93 -22.04 323.32 -22.42 Q 323.71 -22.79 324.22 -23.01 Q 324.74 -23.22 325.32 -23.22 L 325.32 -23.22 L 337.91 -23.22 Q 338.96 -23.22 340.13 -22.99 Q 341.3 -22.75 342.45 -22.23 Q 343.6 -21.7 344.64 -20.89 Q 345.68 -20.09 346.49 -18.94 Q 347.29 -17.79 347.77 -16.29 Q 348.24 -14.78 348.24 -12.89 L 348.24 -12.89 L 348.24 0 L 342.65 0 L 342.65 -12.89 Q 342.65 -13.99 342.28 -14.86 Q 341.9 -15.73 341.26 -16.35 Q 340.61 -16.97 339.74 -17.31 Q 338.87 -17.64 337.86 -17.64 L 337.86 -17.64 L 328.09 -17.64 L 328.09 0 Z M 352.67 -7.84 L 352.67 -7.84 L 352.67 -15.4 Q 352.67 -16.2 352.85 -17.08 Q 353.03 -17.96 353.42 -18.83 Q 353.8 -19.7 354.42 -20.5 Q 355.03 -21.29 355.9 -21.89 Q 356.77 -22.49 357.91 -22.86 Q 359.05 -23.22 360.49 -23.22 L 360.49 -23.22 L 370.56 -23.22 Q 371.36 -23.22 372.25 -23.04 Q 373.14 -22.86 374.01 -22.47 Q 374.88 -22.09 375.68 -21.47 Q 376.47 -20.86 377.07 -19.99 Q 377.67 -19.12 378.04 -17.98 Q 378.4 -16.84 378.4 -15.4 L 378.4 -15.4 L 378.4 2.23 Q 378.4 3.67 378.04 4.82 Q 377.67 5.97 377.07 6.84 Q 376.47 7.71 375.68 8.33 Q 374.88 8.94 374.01 9.32 Q 373.14 9.71 372.25 9.89 Q 371.36 10.08 370.56 10.08 L 370.56 10.08 L 360.49 10.08 L 360.49 4.49 L 370.56 4.49 Q 371.7 4.49 372.26 3.91 Q 372.82 3.33 372.82 2.23 L 372.82 2.23 L 372.82 -15.4 Q 372.82 -16.5 372.26 -17.07 Q 371.7 -17.64 370.56 -17.64 L 370.56 -17.64 L 360.49 -17.64 Q 359.46 -17.64 358.85 -17 Q 358.25 -16.37 358.25 -15.4 L 358.25 -15.4 L 358.25 -7.84 Q 358.25 -6.75 358.83 -6.17 Q 359.41 -5.59 360.53 -5.59 L 360.53 -5.59 L 370.56 -5.59 L 370.56 0 L 360.49 0 Q 359.69 0 358.81 -0.18 Q 357.93 -0.37 357.06 -0.75 Q 356.19 -1.14 355.39 -1.75 Q 354.6 -2.36 354 -3.23 Q 353.4 -4.1 353.03 -5.25 Q 352.67 -6.4 352.67 -7.84 Z M 397.03 -16.5 L 397.03 -16.5 Q 397.03 -18.37 397.7 -19.65 Q 398.36 -20.93 399.37 -21.72 Q 400.38 -22.52 401.56 -22.87 Q 402.75 -23.22 403.78 -23.22 L 403.78 -23.22 L 417.51 -23.22 L 417.51 -17.64 L 403.82 -17.64 Q 403.39 -17.64 403.14 -17.54 Q 402.9 -17.45 402.78 -17.28 Q 402.66 -17.12 402.64 -16.94 Q 402.62 -16.76 402.62 -16.59 L 402.62 -16.59 Q 402.64 -16.24 402.75 -16.05 Q 402.85 -15.86 403.01 -15.77 Q 403.18 -15.68 403.38 -15.67 Q 403.58 -15.66 403.78 -15.66 L 403.78 -15.66 L 412.44 -15.66 Q 414.58 -15.66 416.09 -14.89 Q 417.59 -14.12 418.52 -12.94 Q 419.44 -11.77 419.86 -10.4 Q 420.28 -9.02 420.28 -7.84 L 420.28 -7.84 Q 420.28 -6.4 419.91 -5.25 Q 419.55 -4.1 418.95 -3.23 Q 418.34 -2.36 417.55 -1.75 Q 416.75 -1.14 415.88 -0.75 Q 415.01 -0.37 414.12 -0.18 Q 413.23 0 412.44 0 L 412.44 0 L 397.31 0 L 397.31 -5.59 L 412.39 -5.59 Q 413.53 -5.59 414.11 -6.17 Q 414.69 -6.75 414.69 -7.84 L 414.69 -7.84 Q 414.58 -10.08 412.44 -10.08 L 412.44 -10.08 L 403.78 -10.08 Q 401.93 -10.08 400.64 -10.72 Q 399.35 -11.37 398.55 -12.33 Q 397.74 -13.3 397.39 -14.42 Q 397.03 -15.53 397.03 -16.5 Z M 423.71 -7.84 L 423.71 -7.84 L 423.71 -15.4 Q 423.71 -17.55 424.5 -19.05 Q 425.28 -20.54 426.45 -21.47 Q 427.63 -22.41 429 -22.82 Q 430.38 -23.22 431.54 -23.22 L 431.54 -23.22 L 441.61 -23.22 Q 443.76 -23.22 445.26 -22.45 Q 446.77 -21.68 447.69 -20.51 Q 448.62 -19.34 449.03 -17.96 Q 449.45 -16.59 449.45 -15.4 L 449.45 -15.4 L 449.45 -7.84 Q 449.45 -6.4 449.09 -5.25 Q 448.72 -4.1 448.12 -3.23 Q 447.52 -2.36 446.72 -1.75 Q 445.93 -1.14 445.06 -0.75 Q 444.19 -0.37 443.3 -0.18 Q 442.41 0 441.61 0 L 441.61 0 L 431.54 0 Q 430.38 0 429 -0.41 Q 427.63 -0.82 426.45 -1.75 Q 425.28 -2.69 424.5 -4.18 Q 423.71 -5.67 423.71 -7.84 Z M 429.3 -15.4 L 429.3 -7.84 Q 429.3 -6.75 429.88 -6.17 Q 430.46 -5.59 431.58 -5.59 L 431.58 -5.59 L 441.61 -5.59 Q 442.75 -5.59 443.31 -6.17 Q 443.87 -6.75 443.87 -7.84 L 443.87 -7.84 L 443.87 -15.36 Q 443.87 -16.52 443.29 -17.08 Q 442.71 -17.64 441.61 -17.64 L 441.61 -17.64 L 431.58 -17.64 Q 430.46 -17.64 429.88 -17.07 Q 429.3 -16.5 429.3 -15.4 L 429.3 -15.4 Z M 454.07 -7.84 L 454.07 -7.84 L 454.07 -33.04 L 459.66 -33.04 L 459.66 -7.84 Q 459.66 -6.81 460.3 -6.2 Q 460.95 -5.59 461.91 -5.59 L 461.91 -5.59 L 464.41 -5.59 L 464.41 0 L 461.91 0 Q 460.71 0 459.35 -0.41 Q 457.98 -0.82 456.8 -1.75 Q 455.62 -2.69 454.85 -4.18 Q 454.07 -5.67 454.07 -7.84 Z M 467.31 -10.33 L 467.31 -10.33 L 467.31 -23.22 L 472.89 -23.22 L 472.89 -10.33 Q 472.89 -9.24 473.27 -8.37 Q 473.64 -7.5 474.29 -6.88 Q 474.93 -6.25 475.8 -5.92 Q 476.67 -5.59 477.68 -5.59 L 477.68 -5.59 L 487.46 -5.59 L 487.46 -23.22 L 493.04 -23.22 L 493.04 -2.81 Q 493.04 -2.21 492.83 -1.7 Q 492.62 -1.18 492.24 -0.81 Q 491.86 -0.43 491.36 -0.21 Q 490.85 0 490.27 0 L 490.27 0 L 477.64 0 Q 476.61 0 475.44 -0.24 Q 474.27 -0.47 473.13 -1 Q 471.99 -1.53 470.93 -2.33 Q 469.86 -3.14 469.07 -4.29 Q 468.27 -5.44 467.79 -6.94 Q 467.31 -8.44 467.31 -10.33 Z M 504 -17.64 L 496.74 -17.64 L 496.74 -23.22 L 504 -23.22 L 504 -30.81 L 509.65 -30.81 L 509.65 -23.22 L 519.41 -23.22 L 519.41 -17.64 L 509.65 -17.64 L 509.65 0 L 504 0 L 504 -17.64 Z M 528.75 0 L 523.17 0 L 523.17 -23.22 L 528.75 -23.22 L 528.75 0 Z M 528.75 -27.99 L 523.17 -27.99 L 523.17 -33.04 L 528.75 -33.04 L 528.75 -27.99 Z M 533.63 -7.84 L 533.63 -7.84 L 533.63 -15.4 Q 533.63 -17.55 534.41 -19.05 Q 535.2 -20.54 536.37 -21.47 Q 537.54 -22.41 538.91 -22.82 Q 540.29 -23.22 541.45 -23.22 L 541.45 -23.22 L 551.53 -23.22 Q 553.67 -23.22 555.18 -22.45 Q 556.68 -21.68 557.61 -20.51 Q 558.53 -19.34 558.95 -17.96 Q 559.37 -16.59 559.37 -15.4 L 559.37 -15.4 L 559.37 -7.84 Q 559.37 -6.4 559 -5.25 Q 558.64 -4.1 558.04 -3.23 Q 557.43 -2.36 556.64 -1.75 Q 555.84 -1.14 554.97 -0.75 Q 554.1 -0.37 553.21 -0.18 Q 552.32 0 551.53 0 L 551.53 0 L 541.45 0 Q 540.29 0 538.91 -0.41 Q 537.54 -0.82 536.37 -1.75 Q 535.2 -2.69 534.41 -4.18 Q 533.63 -5.67 533.63 -7.84 Z M 539.21 -15.4 L 539.21 -7.84 Q 539.21 -6.75 539.79 -6.17 Q 540.38 -5.59 541.49 -5.59 L 541.49 -5.59 L 551.53 -5.59 Q 552.66 -5.59 553.22 -6.17 Q 553.78 -6.75 553.78 -7.84 L 553.78 -7.84 L 553.78 -15.36 Q 553.78 -16.52 553.2 -17.08 Q 552.62 -17.64 551.53 -17.64 L 551.53 -17.64 L 541.49 -17.64 Q 540.38 -17.64 539.79 -17.07 Q 539.21 -16.5 539.21 -15.4 L 539.21 -15.4 Z M 569.7 0 L 564.12 0 L 564.12 -20.45 Q 564.12 -21.03 564.33 -21.54 Q 564.54 -22.04 564.93 -22.42 Q 565.32 -22.79 565.83 -23.01 Q 566.35 -23.22 566.93 -23.22 L 566.93 -23.22 L 579.52 -23.22 Q 580.57 -23.22 581.74 -22.99 Q 582.91 -22.75 584.06 -22.23 Q 585.21 -21.7 586.25 -20.89 Q 587.3 -20.09 588.1 -18.94 Q 588.91 -17.79 589.38 -16.29 Q 589.85 -14.78 589.85 -12.89 L 589.85 -12.89 L 589.85 0 L 584.27 0 L 584.27 -12.89 Q 584.27 -13.99 583.89 -14.86 Q 583.52 -15.73 582.87 -16.35 Q 582.23 -16.97 581.36 -17.31 Q 580.49 -17.64 579.48 -17.64 L 579.48 -17.64 L 569.7 -17.64 L 569.7 0 Z M 593.96 -16.5 L 593.96 -16.5 Q 593.96 -18.37 594.62 -19.65 Q 595.29 -20.93 596.3 -21.72 Q 597.31 -22.52 598.49 -22.87 Q 599.67 -23.22 600.7 -23.22 L 600.7 -23.22 L 614.43 -23.22 L 614.43 -17.64 L 600.75 -17.64 Q 600.32 -17.64 600.07 -17.54 Q 599.82 -17.45 599.7 -17.28 Q 599.59 -17.12 599.56 -16.94 Q 599.54 -16.76 599.54 -16.59 L 599.54 -16.59 Q 599.56 -16.24 599.67 -16.05 Q 599.78 -15.86 599.94 -15.77 Q 600.1 -15.68 600.31 -15.67 Q 600.51 -15.66 600.7 -15.66 L 600.7 -15.66 L 609.36 -15.66 Q 611.51 -15.66 613.01 -14.89 Q 614.52 -14.12 615.44 -12.94 Q 616.37 -11.77 616.78 -10.4 Q 617.2 -9.02 617.2 -7.84 L 617.2 -7.84 Q 617.2 -6.4 616.84 -5.25 Q 616.47 -4.1 615.87 -3.23 Q 615.27 -2.36 614.47 -1.75 Q 613.68 -1.14 612.81 -0.75 Q 611.94 -0.37 611.05 -0.18 Q 610.16 0 609.36 0 L 609.36 0 L 594.24 0 L 594.24 -5.59 L 609.32 -5.59 Q 610.46 -5.59 611.04 -6.17 Q 611.62 -6.75 611.62 -7.84 L 611.62 -7.84 Q 611.51 -10.08 609.36 -10.08 L 609.36 -10.08 L 600.7 -10.08 Q 598.86 -10.08 597.57 -10.72 Q 596.28 -11.37 595.47 -12.33 Q 594.67 -13.3 594.31 -14.42 Q 593.96 -15.53 593.96 -16.5 Z" stroke-linecap="round" />
</g>
</g>
</g>
<g transform="matrix(1.9947197350038108 0 0 1.9947197350038108 624.6475563909776 411.3526960029792)" id="logo-logo"  >
<g style=""  paint-order="stroke"   >
		<g transform="matrix(0.29966168083268746 0 0 -0.29966168083268746 -16.341703227675623 0)"  >
<radialGradient id="SVGID_9_3_3_3_3_3_3_418822" gradientUnits="userSpaceOnUse" gradientTransform="matrix(-129.858 -389.573 -389.573 129.858 960.029 805.347)"  cx="0" cy="-1.1368683772161603e-13" r="1" fx="0" fy="-1.1368683772161603e-13">
<stop offset="0%" style="stop-color:rgb(82,174,229);stop-opacity: 1"/>
<stop offset="100%" style="stop-color:rgb(53,110,191);stop-opacity: 1"/>
</radialGradient>
<path style="stroke: none; stroke-width: 1; stroke-dasharray: none; stroke-linecap: butt; stroke-dashoffset: 0; stroke-linejoin: miter; stroke-miterlimit: 4; fill: url(#SVGID_9_3_3_3_3_3_3_418822); fill-rule: nonzero; opacity: 1;"  paint-order="stroke"  transform=" translate(-914.2246935379361, -870.2909150959247)" d="M 819.625 872.184 C 802.828 892.77 787.035 914 772.691 936.059 C 769.813 940.4649999999999 766.996 944.898 764.211 949.348 C 747.77 975.4449999999999 733.8050000000001 1004.91 721.934 1034.04 C 721.891 1033.99 721.855 1033.94 721.8159999999999 1033.8899999999999 C 716.285 1048.7099999999998 711.4609999999999 1063.9399999999998 707.7539999999999 1079.7499999999998 C 682.7769999999999 1186.3499999999997 737.242 1260.7999999999997 846.4019999999999 1264.9599999999998 C 892.8749999999999 1266.7299999999998 939.4689999999999 1265.2699999999998 976.531 1265.2699999999998 C 890.535 1305.6799999999998 773.746 1306.0699999999997 710.7149999999999 1285.7299999999998 C 659.4179999999999 1269.1799999999998 618.9769999999999 1230.0799999999997 601.4999999999999 1182.4199999999998 C 599.5549999999998 1177.12 597.8979999999999 1171.7199999999998 596.5309999999998 1166.2299999999998 C 586.8589999999998 1121.87 592.6289999999998 1075.8399999999997 606.1759999999998 1033.0299999999997 C 607.8589999999998 1027.6899999999998 609.6799999999998 1022.3799999999998 611.5659999999998 1017.1199999999998 C 626.7729999999998 966.1329999999998 655.6759999999998 918.1409999999997 681.8399999999998 873.8439999999998 C 683.6989999999998 870.3199999999998 679.9609999999998 877.3439999999998 681.8399999999998 873.8439999999998 C 689.3549999999998 859.8439999999998 703.1839999999999 839.1839999999999 710.9219999999998 827.3089999999999 L 734.1639999999998 789.4259999999998 L 642.4449999999997 882.5779999999999 C 637.3009999999997 858.4769999999999 632.6209999999998 823.7769999999998 632.6209999999998 798.1369999999998 C 632.6209999999998 601.2269999999999 792.2339999999997 441.61699999999985 989.1209999999998 441.61699999999985 C 1085.3399999999997 441.61699999999985 1172.5899999999997 479.7889999999999 1236.7299999999998 541.7539999999999 C 1075.12 621.8519999999999 934.9409999999998 730.8629999999999 819.6249999999998 872.184" stroke-linecap="round" />
</g>
		<g transform="matrix(0.29966168083268746 0 0 -0.29966168083268746 24.638228358146534 3.0119349773151782)"  >
<radialGradient id="SVGID_10_4_4_4_4_4_4_418823" gradientUnits="userSpaceOnUse" gradientTransform="matrix(169.131 442.475 442.475 -169.131 975.703 709.336)"  cx="2.2737367544323206e-13" cy="0" r="1" fx="2.2737367544323206e-13" fy="0">
<stop offset="0%" style="stop-color:rgb(148,148,148);stop-opacity: 1"/>
<stop offset="100%" style="stop-color:rgb(47,45,46);stop-opacity: 1"/>
</radialGradient>
<path style="stroke: none; stroke-width: 1; stroke-dasharray: none; stroke-linecap: butt; stroke-dashoffset: 0; stroke-linejoin: miter; stroke-miterlimit: 4; fill: url(#SVGID_10_4_4_4_4_4_4_418823); fill-rule: nonzero; opacity: 1;"  paint-order="stroke"  transform=" translate(-1050.8110000000001, -860.2515000000001)" d="M 1295.2 909.934 C 1289.38 931.207 1282.45 951.871 1274.52 971.875 C 1294.6 944.645 1310.19 913.191 1319.7 878.398 C 1335.41 820.945 1332.3400000000001 762.938 1314.31 711.273 C 1319.35 776.145 1313.44 843.219 1295.2 909.934 z M 989.121 1154.64 C 899.949 1154.64 818.5 1121.8300000000002 755.992 1067.73 C 766.52 1034.24 782.4649999999999 1003.61 800.93 974.188 C 914.848 792.574 1073.3 662.719 1259.49 565.863 C 1313.13 628.2850000000001 1345.63 709.3870000000001 1345.63 798.1370000000001 C 1345.63 995.027 1186.0300000000002 1154.64 989.1210000000001 1154.64" stroke-linecap="round" />
</g>
</g>
</g>
</svg>