<svg xmlns="http://www.w3.org/2000/svg" xml:space="preserve" width="1472" height="280"><rect width="1712" height="520" x="-640" y="-512" fill="none" paint-order="stroke" rx="0" ry="0" style="opacity:1;fill:#fff;fill-opacity:0;fill-rule:nonzero;stroke:none;stroke-width:0;stroke-linecap:butt;stroke-linejoin:miter;stroke-miterlimit:4;stroke-dasharray:none;stroke-dashoffset:0" transform="translate(640 512)"/><path d="M21.38-45.14H4.16V0h10.95v-14.52h6.27c8.52 0 15.38-6.86 15.38-15.31S29.9-45.14 21.38-45.14zm-6.27 20.19v-9.77h6.27c2.84 0 4.89 2.05 4.89 4.89 0 2.77-2.11 4.88-4.89 4.88zm41.52 10.43L64.75 0h12.54l-9.44-17.03c4.35-2.84 6.86-7.65 6.86-12.8 0-8.52-6.8-15.31-15.24-15.31H40.33V0h11.02v-14.52zm-5.28-10.43v-9.77h8.12c2.77 0 4.88 2.12 4.88 4.89 0 2.64-2.24 4.88-4.88 4.88zM101.18.92c12.93 0 23.23-10.49 23.23-23.29 0-13.01-10.36-23.24-23.23-23.24-12.94 0-23.3 10.43-23.3 23.24C77.88-9.64 88.31.92 101.18.92zM88.84-22.37c0-6.74 5.67-12.28 12.34-12.28 6.8 0 12.21 5.54 12.21 12.28 0 6.73-5.41 12.27-12.21 12.27-6.73 0-12.34-5.61-12.34-12.27zm69.89-12.35v-10.42H125v10.42h11.42V0h10.96v-34.72zm13.93 24.36v-7.53h15.7v-10.36h-15.7v-6.47h17.29v-10.42h-28.32V0h28.65v-10.36zm20.46-12.01C193.12-9.5 203.68.92 216.41.92c8.52 0 16.57-4.88 20.53-12.4l-9.7-5.28c-1.98 4.02-6.34 6.66-10.83 6.66-6.73 0-12.34-5.61-12.34-12.27 0-6.74 5.68-12.28 12.34-12.28 4.49 0 8.58 2.38 10.76 6.34l9.64-5.15c-4.03-7.53-11.88-12.15-20.4-12.15-12.8 0-23.29 10.3-23.29 23.24zm76.75-22.77v16.83h-18.08v-16.83h-11.02V0h11.02v-17.89h18.08V0h10.96v-45.14zm18.55 40.52c0 3.5 1.91 5.48 5.41 5.48s5.35-2.05 5.35-5.48c0-3.5-1.85-5.41-5.35-5.41-3.5 0-5.41 1.91-5.41 5.41zm53-40.46-.07-.06-11.81 19.73-11.82-19.73H306.7V0h11.02v-25.01l10.5 17.62h2.7l10.5-17.62V0h10.95v-45.14h-10.95zm38.41-.06h-19.27V0h19.27C392.7 0 403-9.5 403-22.37c0-12.81-10.3-22.77-23.17-22.77zm-8.25 34.78v-24.36h8.25c6.8 0 12.21 5.48 12.21 12.21 0 6.8-5.54 12.15-12.21 12.15z" paint-order="stroke" style="opacity:1;fill:#4085cc;fill-rule:nonzero;stroke:none;stroke-width:1;stroke-linecap:butt;stroke-linejoin:miter;stroke-miterlimit:4;stroke-dasharray:none;stroke-dashoffset:0" transform="translate(273.5403308 154.97284706) scale(2.9592819)"/><path d="M2.84-7.84v-15.13q0-.77.18-1.66.18-.89.57-1.76.38-.87 1.01-1.67.62-.79 1.49-1.41.87-.61 2.01-.97 1.14-.37 2.58-.37h22.71v5.59H10.68q-1.1 0-1.68.58-.58.58-.58 1.72v15.08q0 1.07.59 1.66.59.59 1.67.59h17.38v-7H13.19v-5.63h17.64q.6 0 1.12.23.51.22.89.61.37.39.59.89.21.51.21 1.09v12.59q0 .6-.21 1.11-.22.52-.59.89-.38.38-.89.6-.52.21-1.12.21H10.68Q9.9 0 9.01-.18q-.89-.19-1.76-.57-.87-.39-1.66-1-.8-.61-1.41-1.48-.61-.87-.98-2.02-.36-1.15-.36-2.59ZM44.97 0h-5.59v-22.97q0-2.15.79-3.65.78-1.5 1.95-2.43 1.17-.92 2.55-1.34 1.37-.42 2.53-.42h12.63q1.89 0 3.4.48 1.5.49 2.65 1.29 1.15.81 1.96 1.86.8 1.05 1.33 2.2.53 1.15.76 2.32.24 1.18.24 2.21v2.53q0 1.91-.47 3.42-.48 1.5-1.28 2.65-.81 1.15-1.86 1.97-1.05.81-2.2 1.33-1.15.51-2.32.75t-2.21.24H47.2v-5.59h12.63q1.08-.08 1.95-.44.87-.35 1.49-.95.62-.61.97-1.46.34-.84.34-1.92v-2.53q-.11-1.06-.45-1.94-.34-.88-.93-1.5-.59-.62-1.43-.98-.84-.35-1.94-.35H47.24q-1.11 0-1.69.58-.58.58-.58 1.67zm28.79-21.7q0-2.51.89-4.24.89-1.73 2.23-2.82 1.34-1.08 2.91-1.57 1.57-.48 2.92-.48h19.02v5.59H82.71q-1.58 0-2.48.96-.89.97-.89 2.56 0 1.61.89 2.55.9.93 2.48.93h12.9q.9.02 1.91.25 1.01.22 2.01.7 1 .47 1.9 1.19.9.72 1.6 1.73.7 1.01 1.1 2.32.41 1.31.41 2.96 0 1.66-.42 2.98-.41 1.32-1.1 2.33-.69 1.01-1.61 1.72-.93.71-1.92 1.16-.98.45-2 .67-1.03.21-1.93.21H74.01v-5.59h21.55q1.61 0 2.51-.94.89-.95.89-2.54 0-.77-.24-1.41-.24-.65-.68-1.12-.44-.47-1.07-.73-.63-.26-1.41-.26H82.71q-1.35 0-2.92-.48-1.57-.49-2.91-1.56-1.34-1.08-2.23-2.82-.89-1.74-.89-4.25zM128.24 0h-5.59v-20.45q0-.58.22-1.09.21-.5.6-.88.39-.37.9-.59.52-.21 1.1-.21h10.07q1.17 0 2.5.4 1.33.41 2.53 1.31v-1.71h7.56q.8 0 1.68.18.88.18 1.75.57.87.38 1.67 1 .79.61 1.39 1.48.6.87.97 2.01.37 1.14.37 2.58V0h-5.59v-15.4q0-1.1-.55-1.67-.55-.57-1.69-.57h-5.02q.28 1.03.28 2.24V0h-5.59v-15.4q0-1.1-.58-1.67-.58-.57-1.72-.57h-7.26zm32.38-7.84v-7.56q0-2.15.78-3.65.79-1.49 1.96-2.42 1.17-.94 2.54-1.35 1.38-.4 2.54-.4h10.07q2.15 0 3.66.77 1.5.77 2.42 1.94.93 1.17 1.35 2.55.42 1.37.42 2.56v7.56q0 1.44-.37 2.59-.36 1.15-.97 2.02-.6.87-1.39 1.48-.8.61-1.67 1-.87.38-1.76.57-.89.18-1.69.18h-10.07q-1.16 0-2.54-.41-1.37-.41-2.54-1.34-1.17-.94-1.96-2.43-.78-1.49-.78-3.66zm5.58-7.56v7.56q0 1.09.58 1.67.58.58 1.7.58h10.03q1.14 0 1.7-.58t.56-1.67v-7.52q0-1.16-.58-1.72t-1.68-.56h-10.03q-1.12 0-1.7.57-.58.57-.58 1.67zM196.69 0h-5.59v-20.45q0-.58.22-1.09.21-.5.6-.88.39-.37.9-.59.52-.21 1.1-.21h12.59q1.05 0 2.22.23 1.17.24 2.32.76 1.15.53 2.19 1.34 1.05.8 1.85 1.95.81 1.15 1.28 2.65.47 1.51.47 3.4V0h-5.58v-12.89q0-1.1-.38-1.97-.38-.87-1.02-1.49-.65-.62-1.52-.96-.87-.33-1.88-.33h-9.77zm30.72 0h-5.58v-23.22h5.58zm0-27.99h-5.58v-5.05h5.58zm11.07 10.35h-7.27v-5.58h7.27v-7.59h5.65v7.59h9.75v5.58h-9.75V0h-5.65zM257-7.84v-7.56q0-2.15.78-3.65.78-1.49 1.96-2.42 1.17-.94 2.54-1.35 1.38-.4 2.54-.4h10.07q2.15 0 3.65.77 1.51.77 2.43 1.94.93 1.17 1.35 2.55.41 1.37.41 2.56v7.56q0 1.44-.36 2.59-.37 1.15-.97 2.02-.6.87-1.39 1.48-.8.61-1.67 1-.87.38-1.76.57-.89.18-1.69.18h-10.07q-1.16 0-2.54-.41-1.37-.41-2.54-1.34-1.18-.94-1.96-2.43-.78-1.49-.78-3.66Zm5.58-7.56v7.56q0 1.09.58 1.67.58.58 1.7.58h10.03q1.14 0 1.7-.58t.56-1.67v-7.52q0-1.16-.58-1.72t-1.68-.56h-10.03q-1.12 0-1.7.57-.58.57-.58 1.67zM292.94 0h-5.59v-15.4q0-1.44.37-2.58.36-1.14.98-2.01.61-.87 1.4-1.48.8-.62 1.67-1 .87-.39 1.76-.57.89-.18 1.67-.18h12.61v5.58h-12.57q-1.14 0-1.72.57-.58.57-.58 1.67zm24.21 0h-5.58v-23.22h5.58zm0-27.99h-5.58v-5.05h5.58zM328.09 0h-5.59v-20.45q0-.58.22-1.09.21-.5.6-.88.39-.37.9-.59.52-.21 1.1-.21h12.59q1.05 0 2.22.23 1.17.24 2.32.76 1.15.53 2.19 1.34 1.04.8 1.85 1.95.8 1.15 1.28 2.65.47 1.51.47 3.4V0h-5.59v-12.89q0-1.1-.37-1.97-.38-.87-1.02-1.49-.65-.62-1.52-.96-.87-.33-1.88-.33h-9.77zm24.58-7.84v-7.56q0-.8.18-1.68.18-.88.57-1.75.38-.87 1-1.67.61-.79 1.48-1.39.87-.6 2.01-.97 1.14-.36 2.58-.36h10.07q.8 0 1.69.18.89.18 1.76.57.87.38 1.67 1 .79.61 1.39 1.48.6.87.97 2.01.36 1.14.36 2.58V2.23q0 1.44-.36 2.59-.37 1.15-.97 2.02-.6.87-1.39 1.49-.8.61-1.67.99-.87.39-1.76.57-.89.19-1.69.19h-10.07V4.49h10.07q1.14 0 1.7-.58t.56-1.68V-15.4q0-1.1-.56-1.67-.56-.57-1.7-.57h-10.07q-1.03 0-1.64.64-.6.63-.6 1.6v7.56q0 1.09.58 1.67.58.58 1.7.58h10.03V0h-10.07q-.8 0-1.68-.18-.88-.19-1.75-.57-.87-.39-1.67-1-.79-.61-1.39-1.48-.6-.87-.97-2.02-.36-1.15-.36-2.59zm44.36-8.66q0-1.87.67-3.15.66-1.28 1.67-2.07 1.01-.8 2.19-1.15 1.19-.35 2.22-.35h13.73v5.58h-13.69q-.43 0-.68.1-.24.09-.36.26-.12.16-.14.34-.02.18-.02.35.02.35.13.54.1.19.26.28.17.09.37.1.2.01.4.01h8.66q2.14 0 3.65.77 1.5.77 2.43 1.95.92 1.17 1.34 2.54.42 1.38.42 2.56 0 1.44-.37 2.59-.36 1.15-.96 2.02-.61.87-1.4 1.48-.8.61-1.67 1-.87.38-1.76.57-.89.18-1.68.18h-15.13v-5.59h15.08q1.14 0 1.72-.58.58-.58.58-1.67-.11-2.24-2.25-2.24h-8.66q-1.85 0-3.14-.64-1.29-.65-2.09-1.61-.81-.97-1.16-2.09-.36-1.11-.36-2.08zm26.68 8.66v-7.56q0-2.15.79-3.65.78-1.49 1.95-2.42 1.18-.94 2.55-1.35 1.38-.4 2.54-.4h10.07q2.15 0 3.65.77 1.51.77 2.43 1.94.93 1.17 1.34 2.55.42 1.37.42 2.56v7.56q0 1.44-.36 2.59-.37 1.15-.97 2.02-.6.87-1.4 1.48-.79.61-1.66 1-.87.38-1.76.57-.89.18-1.69.18h-10.07q-1.16 0-2.54-.41-1.37-.41-2.55-1.34-1.17-.94-1.95-2.43-.79-1.49-.79-3.66zm5.59-7.56v7.56q0 1.09.58 1.67.58.58 1.7.58h10.03q1.14 0 1.7-.58t.56-1.67v-7.52q0-1.16-.58-1.72t-1.68-.56h-10.03q-1.12 0-1.7.57-.58.57-.58 1.67zm24.77 7.56v-25.2h5.59v25.2q0 1.03.64 1.64.65.61 1.61.61h2.5V0h-2.5q-1.2 0-2.56-.41-1.37-.41-2.55-1.34-1.18-.94-1.95-2.43-.78-1.49-.78-3.66zm13.24-2.49v-12.89h5.58v12.89q0 1.09.38 1.96.37.87 1.02 1.49.64.63 1.51.96.87.33 1.88.33h9.78v-17.63h5.58v20.41q0 .6-.21 1.11-.21.52-.59.89-.38.38-.88.6-.51.21-1.09.21h-12.63q-1.03 0-2.2-.24-1.17-.23-2.31-.76-1.14-.53-2.2-1.33-1.07-.81-1.86-1.96-.8-1.15-1.28-2.65t-.48-3.39zM504-17.64h-7.26v-5.58H504v-7.59h5.65v7.59h9.76v5.58h-9.76V0H504ZM528.75 0h-5.58v-23.22h5.58zm0-27.99h-5.58v-5.05h5.58zm4.88 20.15v-7.56q0-2.15.78-3.65.79-1.49 1.96-2.42 1.17-.94 2.54-1.35 1.38-.4 2.54-.4h10.08q2.14 0 3.65.77 1.5.77 2.43 1.94.92 1.17 1.34 2.55.42 1.37.42 2.56v7.56q0 1.44-.37 2.59-.36 1.15-.96 2.02-.61.87-1.4 1.48-.8.61-1.67 1-.87.38-1.76.57-.89.18-1.68.18h-10.08q-1.16 0-2.54-.41-1.37-.41-2.54-1.34-1.17-.94-1.96-2.43-.78-1.49-.78-3.66zm5.58-7.56v7.56q0 1.09.58 1.67.59.58 1.7.58h10.04q1.13 0 1.69-.58t.56-1.67v-7.52q0-1.16-.58-1.72t-1.67-.56h-10.04q-1.11 0-1.7.57-.58.57-.58 1.67zM569.7 0h-5.58v-20.45q0-.58.21-1.09.21-.5.6-.88.39-.37.9-.59.52-.21 1.1-.21h12.59q1.05 0 2.22.23 1.17.24 2.32.76 1.15.53 2.19 1.34 1.05.8 1.85 1.95.81 1.15 1.28 2.65.47 1.51.47 3.4V0h-5.58v-12.89q0-1.1-.38-1.97-.37-.87-1.02-1.49-.64-.62-1.51-.96-.87-.33-1.88-.33h-9.78zm24.26-16.5q0-1.87.66-3.15.67-1.28 1.68-2.07 1.01-.8 2.19-1.15 1.18-.35 2.21-.35h13.73v5.58h-13.68q-.43 0-.68.1-.25.09-.37.26-.11.16-.14.34-.02.18-.02.35.02.35.13.54.11.19.27.28.16.09.37.1.2.01.39.01h8.66q2.15 0 3.65.77 1.51.77 2.43 1.95.93 1.17 1.34 2.54.42 1.38.42 2.56 0 1.44-.36 2.59-.37 1.15-.97 2.02-.6.87-1.4 1.48-.79.61-1.66 1-.87.38-1.76.57-.89.18-1.69.18h-15.12v-5.59h15.08q1.14 0 1.72-.58.58-.58.58-1.67-.11-2.24-2.26-2.24h-8.66q-1.84 0-3.13-.64-1.29-.65-2.1-1.61-.8-.97-1.16-2.09-.35-1.11-.35-2.08z" paint-order="stroke" style="opacity:1;fill:#737373;fill-rule:nonzero;stroke:#fff;stroke-width:0;stroke-linecap:butt;stroke-linejoin:miter;stroke-miterlimit:4;stroke-dasharray:none;stroke-dashoffset:0" transform="translate(280.39483892 238.87189562) scale(1.9211538)"/><g paint-order="stroke" style="display:inline;stroke-width:1.00091;stroke-dasharray:none"><g style="stroke-width:3.34013;stroke-dasharray:none" transform="matrix(.32658857 0 0 -.32658857 105.3265442 140.00000755)"><radialGradient id="a" cx="0" cy="0" r="1" fx="0" fy="0" gradientTransform="matrix(-129.858 -389.573 -389.573 129.858 960.029 805.347)" gradientUnits="userSpaceOnUse"><stop offset="0%" style="stop-color:#52aee5;stop-opacity:1"/><stop offset="100%" style="stop-color:#356ebf;stop-opacity:1"/></radialGradient><path d="M819.625 872.184c-16.797 20.586-32.59 41.816-46.934 63.875-2.878 4.406-5.695 8.839-8.48 13.289-16.441 26.097-30.406 55.562-42.277 84.692-.043-.05-.079-.1-.118-.15-5.531 14.82-10.355 30.05-14.062 45.86-24.977 106.6 29.488 181.05 138.648 185.21 46.473 1.77 93.067.31 130.129.31-85.996 40.41-202.785 40.8-265.816 20.46-51.297-16.55-91.738-55.65-109.215-103.31-1.945-5.3-3.602-10.7-4.969-16.19-9.672-44.36-3.902-90.39 9.645-133.2 1.683-5.34 3.504-10.65 5.39-15.91 15.207-50.987 44.11-98.979 70.274-143.276 1.859-3.524-1.879 3.5 0 0 7.515-14 21.344-34.66 29.082-46.535l23.242-37.883-91.719 93.152c-5.144-24.101-9.824-58.801-9.824-84.441 0-196.91 159.613-356.52 356.5-356.52 96.219 0 183.469 38.172 247.609 100.137-161.61 80.098-301.789 189.109-417.105 330.43" style="opacity:1;fill:url(#a);fill-rule:nonzero;stroke:none;stroke-width:3.34013;stroke-linecap:butt;stroke-linejoin:miter;stroke-miterlimit:4;stroke-dasharray:none;stroke-dashoffset:0" transform="translate(-914.22469 -870.29092)"/></g><g style="stroke-width:3.34013;stroke-dasharray:none" transform="matrix(.32658857 0 0 -.32658857 149.98883423 143.28258786)"><radialGradient id="b" cx="0" cy="0" r="1" fx="0" fy="0" gradientTransform="matrix(169.131 442.475 442.475 -169.131 975.703 709.336)" gradientUnits="userSpaceOnUse"><stop offset="0%" style="stop-color:#949494;stop-opacity:1"/><stop offset="100%" style="stop-color:#2f2d2e;stop-opacity:1"/></radialGradient><path d="M1295.2 909.934c-5.82 21.273-12.75 41.937-20.68 61.941 20.08-27.23 35.67-58.684 45.18-93.477 15.71-57.453 12.64-115.46-5.39-167.125 5.04 64.872-.87 131.946-19.11 198.661zM989.121 1154.64c-89.172 0-170.621-32.81-233.129-86.91 10.528-33.49 26.473-64.12 44.938-93.542 113.918-181.614 272.37-311.469 458.56-408.325 53.64 62.422 86.14 143.524 86.14 232.274 0 196.89-159.6 356.503-356.509 356.503" style="opacity:1;fill:url(#b);fill-rule:nonzero;stroke:none;stroke-width:3.34013;stroke-linecap:butt;stroke-linejoin:miter;stroke-miterlimit:4;stroke-dasharray:none;stroke-dashoffset:0" transform="translate(-1050.811 -860.2515)"/></g></g></svg>
