<?xml version="1.0" standalone="no"?>
<!DOCTYPE svg PUBLIC "-//W3C//DTD SVG 20010904//EN"
 "http://www.w3.org/TR/2001/REC-SVG-20010904/DTD/svg10.dtd">
<svg version="1.0" xmlns="http://www.w3.org/2000/svg"
 width="1456.000000pt" height="1456.000000pt" viewBox="0 0 1456.000000 1456.000000"
 preserveAspectRatio="xMidYMid meet">
<metadata>
Created by potrace 1.14, written by Peter Selinger 2001-2017
</metadata>
<g transform="translate(0.000000,1456.000000) scale(0.100000,-0.100000)"
fill="#000000" stroke="none">
<path d="M4347 14544 c-1 -1 -70 -5 -154 -8 -83 -4 -160 -8 -170 -10 -10 -2
-58 -7 -108 -11 -49 -3 -92 -8 -95 -10 -3 -1 -43 -6 -90 -10 -47 -4 -88 -9
-91 -10 -3 -2 -25 -6 -50 -9 -24 -3 -54 -8 -65 -10 -12 -2 -37 -7 -55 -10 -31
-5 -146 -27 -209 -40 -14 -3 -38 -8 -55 -12 -213 -43 -578 -175 -755 -272 -25
-14 -74 -41 -110 -60 -472 -261 -915 -723 -1158 -1207 -100 -201 -202 -488
-227 -636 -3 -19 -7 -45 -10 -59 -7 -37 -13 -79 -21 -135 -3 -27 -8 -58 -9
-67 -20 -102 -28 -616 -12 -793 19 -220 52 -436 99 -640 16 -71 31 -137 33
-145 43 -192 263 -865 371 -1133 111 -275 330 -734 455 -953 12 -22 38 -68 57
-104 20 -36 92 -162 160 -280 68 -118 136 -235 150 -260 14 -25 67 -116 118
-202 51 -86 102 -174 114 -195 37 -68 106 -182 174 -288 115 -179 136 -211
146 -222 5 -7 10 -14 10 -17 0 -3 36 -59 80 -125 44 -67 80 -123 80 -125 0 -2
36 -61 80 -132 44 -71 94 -151 110 -179 17 -27 57 -93 90 -145 32 -52 57 -96
56 -97 -3 -3 -94 89 -483 484 -853 867 -1047 1063 -1052 1063 -4 0 -15 -46
-25 -102 -24 -135 -25 -139 -31 -168 -2 -14 -7 -41 -10 -60 -3 -19 -7 -46 -10
-60 -3 -14 -7 -45 -10 -70 -3 -25 -10 -72 -15 -105 -5 -33 -12 -82 -15 -110
-3 -27 -7 -63 -9 -80 -3 -27 -10 -92 -22 -215 -12 -132 -18 -277 -18 -470 0
-276 12 -498 39 -705 2 -16 7 -52 10 -80 9 -76 15 -115 25 -170 5 -27 12 -66
14 -85 22 -144 95 -454 152 -650 249 -843 703 -1661 1282 -2308 96 -108 364
-378 457 -462 117 -106 350 -298 431 -355 15 -11 39 -30 53 -41 14 -12 105
-74 201 -138 96 -64 180 -120 185 -125 6 -4 41 -25 79 -47 37 -21 82 -47 99
-58 250 -148 636 -327 952 -441 132 -48 381 -128 431 -140 10 -2 80 -20 154
-38 127 -33 328 -76 430 -93 25 -4 47 -8 50 -9 3 -1 32 -5 65 -10 33 -5 62 -9
65 -10 3 -1 34 -5 70 -9 36 -4 79 -10 95 -12 197 -26 441 -38 720 -38 192 0
448 10 495 19 8 1 51 6 95 9 44 4 91 9 105 11 14 2 48 6 75 10 108 14 121 16
145 20 14 3 41 7 60 10 81 13 354 69 465 97 677 166 1383 483 1949 876 45 30
95 65 111 76 17 12 32 23 35 26 3 3 41 32 85 65 138 102 315 250 440 367 27
25 65 60 84 76 26 22 30 31 20 37 -7 5 -88 47 -179 93 -329 168 -702 368 -928
498 -52 30 -95 54 -97 54 -1 0 -44 25 -94 55 -51 30 -96 55 -101 55 -6 0 -10
5 -10 10 0 6 -4 10 -10 10 -12 0 -414 244 -667 404 -116 74 -637 419 -643 426
-3 3 -48 35 -100 71 -200 137 -757 547 -886 652 -11 9 -77 61 -148 117 -70 56
-136 108 -145 115 -58 48 -500 416 -516 431 -11 11 -54 48 -95 84 -41 36 -77
67 -80 70 -3 3 -25 23 -50 44 -328 286 -900 838 -1246 1204 -44 46 -95 100
-114 120 -53 56 -243 262 -263 286 -10 11 -46 52 -80 90 -34 38 -66 74 -72 80
-17 19 -138 159 -165 190 -14 16 -30 34 -35 40 -83 87 -497 598 -649 801 -54
72 -103 137 -109 145 -92 115 -431 620 -566 845 -23 39 -47 77 -52 85 -166
268 -504 974 -644 1345 -97 256 -219 691 -251 894 -3 18 -8 43 -10 55 -2 11
-7 41 -10 66 -3 25 -9 72 -14 105 -23 157 -31 449 -17 632 7 94 26 243 32 253
2 3 6 24 10 47 3 24 17 84 31 135 13 51 26 100 28 108 15 57 83 226 130 318
335 669 988 1084 1883 1196 28 4 137 14 228 21 207 16 1287 23 2098 12 108 -1
197 -1 197 1 0 6 -151 72 -166 72 -7 0 -14 5 -14 10 0 6 -6 10 -12 10 -7 0
-46 14 -87 30 -268 109 -681 231 -1001 294 -120 23 -309 57 -343 61 -23 3 -53
7 -67 10 -14 3 -43 7 -65 10 -21 2 -73 9 -115 15 -82 11 -153 18 -245 25 -33
2 -82 6 -110 9 -129 13 -292 19 -548 20 -152 2 -278 2 -280 0z"/>
<path d="M7349 12096 c-2 -2 -56 -7 -119 -10 -63 -4 -133 -9 -155 -11 -102
-10 -163 -16 -195 -21 -19 -3 -50 -7 -67 -9 -18 -3 -57 -8 -85 -11 -29 -4 -56
-8 -59 -10 -3 -1 -28 -6 -55 -9 -27 -4 -65 -10 -84 -15 -19 -5 -53 -11 -75
-15 -22 -3 -47 -7 -55 -10 -8 -2 -26 -6 -40 -9 -52 -9 -289 -68 -390 -97 -270
-78 -558 -183 -790 -286 -72 -32 -403 -197 -455 -226 -22 -12 -67 -37 -100
-56 -174 -98 -425 -264 -615 -406 -80 -60 -147 -112 -150 -115 -3 -3 -39 -33
-80 -67 -112 -90 -107 -77 -70 -190 187 -567 531 -1214 1064 -1998 144 -211
219 -319 225 -325 3 -3 21 -27 40 -55 120 -174 574 -766 756 -984 110 -131
417 -486 485 -561 18 -19 53 -57 78 -85 219 -241 693 -724 947 -965 110 -104
301 -279 381 -350 16 -14 85 -75 154 -135 69 -61 152 -133 185 -160 33 -28 65
-55 70 -61 6 -6 46 -40 90 -75 44 -35 86 -69 93 -76 7 -7 34 -29 60 -50 26
-21 49 -40 52 -43 3 -3 25 -21 50 -40 25 -19 56 -45 70 -57 78 -69 788 -604
906 -683 96 -65 140 -95 144 -100 31 -37 1170 -780 1196 -780 3 0 20 -11 38
-25 18 -14 36 -25 39 -25 4 0 30 -15 59 -33 29 -19 60 -37 68 -40 8 -4 44 -25
79 -47 34 -22 64 -40 66 -40 2 0 61 -34 130 -75 70 -41 129 -75 131 -75 2 0
41 -22 86 -49 82 -48 351 -195 523 -286 50 -26 123 -66 163 -87 40 -22 75 -38
76 -37 316 368 601 799 824 1244 69 138 202 433 202 448 0 2 8 22 17 43 9 22
18 44 19 49 1 6 12 35 24 65 116 290 265 873 306 1195 2 17 6 46 8 65 3 19 8
54 11 78 3 23 7 59 10 80 3 21 7 60 9 87 3 28 8 95 13 150 16 194 8 862 -12
995 -2 14 -6 54 -10 90 -3 36 -8 79 -10 95 -2 17 -7 54 -10 83 -6 50 -8 63
-20 122 -2 14 -7 45 -11 70 -4 35 -47 251 -69 352 -60 274 -211 729 -347 1043
-91 211 -287 585 -396 755 -381 595 -757 1032 -1252 1450 -36 30 -67 57 -70
60 -7 7 -61 49 -190 147 -493 374 -1093 692 -1685 892 -115 39 -273 88 -305
96 -8 2 -51 13 -95 25 -44 12 -87 23 -95 25 -54 13 -118 27 -133 30 -10 2 -26
6 -35 9 -9 3 -30 8 -47 11 -38 6 -134 24 -161 29 -12 2 -39 7 -60 10 -22 3
-50 8 -64 11 -14 3 -38 7 -55 9 -16 2 -66 9 -110 15 -91 12 -137 17 -360 37
-61 6 -701 14 -706 10z m5214 -3232 c243 -354 447 -766 591 -1194 47 -139 122
-408 140 -500 25 -133 56 -304 60 -340 4 -25 8 -61 11 -80 3 -19 7 -62 11 -95
3 -33 8 -73 10 -90 21 -174 21 -703 -1 -845 -2 -14 -6 -56 -10 -95 -3 -38 -7
-81 -10 -95 -2 -14 -7 -45 -10 -70 -27 -205 -93 -488 -181 -777 -14 -46 -27
-83 -29 -83 -3 0 -3 19 0 43 26 260 26 1190 0 1400 -2 15 -7 71 -10 125 -4 53
-9 99 -10 102 -2 3 -6 43 -10 89 -4 46 -8 92 -10 102 -2 10 -6 45 -10 78 -3
33 -8 69 -10 81 -2 12 -7 48 -11 79 -6 54 -68 426 -77 466 -3 11 -8 40 -12 65
-7 42 -13 72 -19 95 -1 6 -6 26 -10 45 -81 376 -152 649 -255 970 -50 160
-162 482 -181 525 -23 51 -50 129 -42 120 5 -5 44 -60 85 -121z"/>
</g>
</svg>
